<svg xmlns="http://www.w3.org/2000/svg" width="1280" height="1580" viewBox="0 0 1280 1580">
  <defs>
    <marker id="arrow" markerWidth="12" markerHeight="12" refX="10" refY="6" orient="auto" markerUnits="strokeWidth">
      <path d="M2,2 L10,6 L2,10 Z" fill="#2563eb" />
    </marker>
    <style>
      .bg { fill: #f8fafc; }
      .box { fill: #ffffff; stroke: #2563eb; stroke-width: 2.2; rx: 16; }
      .final { fill: #ecfdf5; stroke: #059669; stroke-width: 2.4; rx: 16; }
      .title { font-family: Arial, 'Microsoft YaHei', sans-serif; font-size: 20px; font-weight: 700; fill: #0f172a; }
      .body { font-family: Arial, 'Microsoft YaHei', sans-serif; font-size: 15px; fill: #334155; }
      .arrow { stroke: #2563eb; stroke-width: 2.2; fill: none; marker-end: url(#arrow); }
      .caption { font-family: Arial, 'Microsoft YaHei', sans-serif; font-size: 28px; font-weight: 700; fill: #0f172a; }
    </style>
  </defs>
  <rect class="bg" x="0" y="0" width="1280" height="1580" />
  <text x="640.0" y="24" text-anchor="middle" class="caption">cloud_mdt_case_0 整体结果流程图</text>

  <path class="arrow" d="M640,135 C640,155.0 640,155.0 640,175" />
  <path class="arrow" d="M530,265 C530,297.5 320,297.5 320,330" />
  <path class="arrow" d="M750,265 C750,297.5 960,297.5 960,330" />
  <path class="arrow" d="M320,455 C320,495.0 560,495.0 560,535" />
  <path class="arrow" d="M960,455 C960,495.0 720,495.0 720,535" />
  <path class="arrow" d="M560,640 C560,675.0 245,675.0 245,710" />
  <path class="arrow" d="M640,640 C640,675.0 640,675.0 640,710" />
  <path class="arrow" d="M720,640 C720,675.0 1035,675.0 1035,710" />
  <path class="arrow" d="M245,845 C245,887.5 530,887.5 530,930" />
  <path class="arrow" d="M640,845 C640,887.5 640,887.5 640,930" />
  <path class="arrow" d="M1035,845 C1035,887.5 750,887.5 750,930" />
  <path class="arrow" d="M640,1045 C640,1090.0 640,1090.0 640,1135" />
  <path class="arrow" d="M640,1275 C640,1327.5 640,1327.5 640,1380" />
  <rect class="box" x="420" y="30" width="440" height="105" rx="16" />
  <text x="640.0" y="62" text-anchor="middle" class="title">病例输入</text>
  <text x="640.0" y="90" text-anchor="middle" class="body">hadm_id: 22927623 / subject_id: 10000117</text>
  <text x="640.0" y="113" text-anchor="middle" class="body">F, 48岁；主诊断: Dysphagia, unspecified</text>
  <rect class="box" x="420" y="175" width="440" height="90" rx="16" />
  <text x="640.0" y="207" text-anchor="middle" class="title">诊断路由智能体</text>
  <text x="640.0" y="235" text-anchor="middle" class="body">唤起专科: 消化、心血管</text>
  <text x="640.0" y="258" text-anchor="middle" class="body">主专科: 消化（按相关诊断数量）</text>
  <rect class="box" x="110" y="330" width="420" height="125" rx="16" />
  <text x="320.0" y="362" text-anchor="middle" class="title">消化智能体</text>
  <text x="320.0" y="390" text-anchor="middle" class="body">相关诊断: 5 个</text>
  <text x="320.0" y="413" text-anchor="middle" class="body">Top: pantoprazole, omeprazole, metronidazole,</text>
  <text x="320.0" y="436" text-anchor="middle" class="body">polyethylene glycol, ciprofloxacin iv</text>
  <text x="320.0" y="459" text-anchor="middle" class="body">专科风险提示: 0 条</text>
  <rect class="box" x="750" y="330" width="420" height="125" rx="16" />
  <text x="960.0" y="362" text-anchor="middle" class="title">心血管智能体</text>
  <text x="960.0" y="390" text-anchor="middle" class="body">相关诊断: 4 个</text>
  <text x="960.0" y="413" text-anchor="middle" class="body">Top: furosemide, metoprolol tartrate, heparin,</text>
  <text x="960.0" y="436" text-anchor="middle" class="body">aspirin, warfarin</text>
  <text x="960.0" y="459" text-anchor="middle" class="body">专科风险提示: 0 条</text>
  <rect class="box" x="420" y="535" width="440" height="105" rx="16" />
  <text x="640.0" y="567" text-anchor="middle" class="title">协调智能体</text>
  <text x="640.0" y="595" text-anchor="middle" class="body">整合各专科建议</text>
  <text x="640.0" y="618" text-anchor="middle" class="body">生成 3 个候选治疗方案</text>
  <rect class="box" x="70" y="710" width="350" height="135" rx="16" />
  <text x="245.0" y="742" text-anchor="middle" class="title">plan_a 主专科优先方案</text>
  <text x="245.0" y="770" text-anchor="middle" class="body">pantoprazole, omeprazole,</text>
  <text x="245.0" y="793" text-anchor="middle" class="body">metronidazole, polyethylene glycol,</text>
  <text x="245.0" y="816" text-anchor="middle" class="body">ciprofloxacin iv</text>
  <text x="245.0" y="839" text-anchor="middle" class="body">aggregate_score: 10.53</text>
  <rect class="box" x="465" y="710" width="350" height="135" rx="16" />
  <text x="640.0" y="742" text-anchor="middle" class="title">plan_b 多专科平衡方案</text>
  <text x="640.0" y="770" text-anchor="middle" class="body">pantoprazole, omeprazole,</text>
  <text x="640.0" y="793" text-anchor="middle" class="body">metronidazole, polyethylene glycol,</text>
  <text x="640.0" y="816" text-anchor="middle" class="body">ciprofloxacin iv</text>
  <text x="640.0" y="839" text-anchor="middle" class="body">aggregate_score: 10.53</text>
  <rect class="box" x="860" y="710" width="350" height="135" rx="16" />
  <text x="1035.0" y="742" text-anchor="middle" class="title">plan_c 保守低负荷方案</text>
  <text x="1035.0" y="770" text-anchor="middle" class="body">pantoprazole, omeprazole,</text>
  <text x="1035.0" y="793" text-anchor="middle" class="body">metronidazole</text>
  <text x="1035.0" y="816" text-anchor="middle" class="body">aggregate_score: 6.54</text>
  <rect class="box" x="420" y="930" width="440" height="115" rx="16" />
  <text x="640.0" y="962" text-anchor="middle" class="title">安全智能体筛查</text>
  <text x="640.0" y="990" text-anchor="middle" class="body">关键检验值均未触发规则风险</text>
  <text x="640.0" y="1013" text-anchor="middle" class="body">触发风险数量: 0</text>
  <text x="640.0" y="1036" text-anchor="middle" class="body">risk_penalty: 0</text>
  <rect class="final" x="380" y="1135" width="520" height="140" rx="16" />
  <text x="640.0" y="1167" text-anchor="middle" class="title">最终方案: plan_a 主专科优先方案</text>
  <text x="640.0" y="1195" text-anchor="middle" class="body">pantoprazole, omeprazole, metronidazole,</text>
  <text x="640.0" y="1218" text-anchor="middle" class="body">polyethylene glycol, ciprofloxacin iv</text>
  <text x="640.0" y="1241" text-anchor="middle" class="body">final_score: 10.53</text>
  <rect class="final" x="330" y="1380" width="620" height="110" rx="16" />
  <text x="640.0" y="1412" text-anchor="middle" class="title">结论</text>
  <text x="640.0" y="1440" text-anchor="middle" class="body">安全智能体选择风险惩罚后得分最高的方案；</text>
  <text x="640.0" y="1463" text-anchor="middle" class="body">本病例无触发风险，最终采用主专科优先方案。</text>
</svg>
